<mxfile host="app.diagrams.net" modified="2024-04-02T19:18:53.061Z" agent="Mozilla/5.0 (Windows NT 10.0; Win64; x64) AppleWebKit/537.36 (KHTML, like Gecko) Chrome/123.0.0.0 Safari/537.36" version="24.2.1" etag="TXbEuzNdMstG4vJv9H4R" type="github">
  <diagram name="Page-1" id="OIQOIYgU37Os3B8YYPrC">
    <mxGraphModel>
      <root>
        <mxCell id="0" />
        <mxCell id="1" parent="0" />
      </root>
    </mxGraphModel>
  </diagram>
</mxfile>
